<?xml version="1.0" encoding="UTF-8"?>
<svg xmlns="http://www.w3.org/2000/svg" viewBox="0 0 242.16 249.41">
  <defs>
    <style>
      .cls-1 {
        fill: #fbf6f4;
      }
    </style>
  </defs>
  <g id="Layer_2" data-name="Layer 2">
    <g>
      <path d="m6.6,248.81H0l6.54-11.58H1.92v-7.74h9l3.12-5.46h-4.32v-7.74h8.7l6.78-12h6.6l-6.78,12h7.2l6.78-12h6.6l-6.78,12h4.92v7.74h-9.3l-3.12,5.46h4.62v7.74h-9l-6.54,11.58h-6.6l6.54-11.58h-7.2l-6.54,11.58Zm18.12-19.32l3.12-5.46h-7.2l-3.12,5.46h7.2Z"/>
      <path d="m59.88,204.29v44.52h-9v-44.52h9Z"/>
      <path d="m97.8,228.77c-3.36,1.68-7.8,2.64-11.22,2.64h-3c-11.16,0-16.74-6.78-16.74-13.56s5.58-13.56,16.74-13.56h6c9.48,0,17.22,7.56,17.22,16.92v10.68c0,9.36-7.74,16.92-17.22,16.92h-6c-4.68,0-11.4-1.86-14.52-4.86l7.8-6c1.5,1.92,4.26,3.12,6.72,3.12h6c4.56,0,8.22-4.14,8.22-9.18v-3.12Zm0-7.56c0-5.04-3.66-9.18-8.22-9.18h-6c-5.34,0-7.98,2.94-7.98,5.82s2.64,5.82,7.98,5.82h3c2.46,0,5.22-1.2,6.72-3.12l4.5,3.48v-2.82Z"/>
      <path d="m131.1,249.41c-9.48,0-17.22-7.56-17.22-16.92v-11.88c0-9.36,7.74-16.92,17.22-16.92h3c9.48,0,17.22,7.56,17.22,16.92v11.88c0,9.36-7.74,16.92-17.22,16.92h-3Zm3-7.74c4.56,0,8.22-4.14,8.22-9.18v-11.88c0-5.04-3.66-9.18-8.22-9.18h-3c-4.56,0-8.22,4.14-8.22,9.18v11.88c0,5.04,3.66,9.18,8.22,9.18h3Z"/>
      <path d="m187.8,228.77c-3.36,1.68-7.8,2.64-11.22,2.64h-3c-11.16,0-16.74-6.78-16.74-13.56s5.58-13.56,16.74-13.56h6c9.48,0,17.22,7.56,17.22,16.92v10.68c0,9.36-7.74,16.92-17.22,16.92h-6c-4.68,0-11.4-1.86-14.52-4.86l7.8-6c1.5,1.92,4.26,3.12,6.72,3.12h6c4.56,0,8.22-4.14,8.22-9.18v-3.12Zm0-7.56c0-5.04-3.66-9.18-8.22-9.18h-6c-5.34,0-7.98,2.94-7.98,5.82s2.64,5.82,7.98,5.82h3c2.46,0,5.22-1.2,6.72-3.12l4.5,3.48v-2.82Z"/>
      <path d="m220.26,248.81c-11.28,0-16.92-6.24-16.92-12.54,0-4.02,2.28-7.98,6.84-10.38-2.94-2.4-4.44-5.82-4.44-9.24,0-6.18,4.86-12.36,14.52-12.36h4.98c9.66,0,14.52,6.18,14.52,12.36,0,3.42-1.5,6.84-4.44,9.24,4.56,2.4,6.84,6.36,6.84,10.38,0,6.3-5.64,12.54-16.92,12.54h-4.98Zm13.14-13.14c0-2.7-2.7-5.46-8.16-5.46h-4.98c-5.46,0-8.16,2.76-8.16,5.46s2.7,5.4,8.16,5.4h4.98c5.46,0,8.16-2.7,8.16-5.4Zm-13.14-23.64c-3.84,0-5.76,2.58-5.76,5.22s1.92,5.22,5.76,5.22h4.98c3.84,0,5.76-2.64,5.76-5.22s-1.92-5.22-5.76-5.22h-4.98Z"/>
    </g>
  </g>
  <g id="Layer_1" data-name="Layer 1">
    <g>
      <path class="cls-1" d="m147.32,183.21s48.54-37.06,72.21-55.02c.81-.62,1.01-1.05.45-2-3.58-6.14-7.11-12.31-10.61-18.5-.47-.83-.96-1.06-1.9-.95-12.29,1.53-24.58,3-36.86,4.54-.8.1-1.69.52-2.28,1.06-5.99,5.46-19.23,17.61-19.23,17.61,0,0,.09-.19.25-.53l-11.89,11.87c-.12.15-.25.28-.39.39h0l-.02.02c-3.45,2.76-11.21,8.84-11.44,9.01l-.02.02-3.39,2.52-3.3-2.68h0s-7.98-6.24-11.47-9.04c0,0-.01,0-.02-.02l-12.16-11.56h0s-.08-.07-.21-.19l-18.91-17.32s-.08-.07-.11-.1c-.6-.54-1.48-.96-2.28-1.06-12.28-1.54-24.58-3.01-36.86-4.54-.94-.12-1.43.12-1.9.95-3.5,6.19-7.03,12.36-10.61,18.5-.56.96-.36,1.39.45,2,23.66,17.95,72.16,54.98,72.21,55.02h0l25.14,13.26-11.92-23.57,11.94,5.14,11.96-5.19-11.98,23.62h0l25.36-13.26,89.34-47.15-.05-.09c-30.03,15.9-89.51,47.24-89.51,47.24h0Z"/>
      <path class="cls-1" d="m68.15,49.35c-.32.1-.5.16-.5.16,0,0,5.83-5.19,8.53-7.44.6-.5.75-.86.19-1.54-5.83-7.05-11.64-14.11-17.43-21.19-.53-.65-.86-.57-1.41-.06-3.72,3.45-7.47,6.86-11.17,10.33-.38.36-.68,1-.69,1.52-.2,8.5-.31,17.01-.53,25.52v.35l22.52-7.33.5-.32h-.01Z"/>
      <path class="cls-1" d="m198.84,31.13c0-.52-.31-1.17-.69-1.52-3.7-3.47-7.46-6.88-11.17-10.33-.55-.51-.88-.59-1.41.06-5.79,7.08-11.6,14.15-17.43,21.19-.56.68-.42,1.03.19,1.54,2.7,2.25,8.53,7.44,8.53,7.44,0,0-.18-.06-.49-.16l.49.32,22.52,7.34v-.36c-.22-8.5-.33-17.01-.53-25.52h-.01Z"/>
    </g>
    <polygon points="122.17 196.48 110.25 172.91 122.19 178.05 134.16 172.86 122.17 196.48"/>
    <path d="m208.46,44.23c.45,6.29.84,12.59,1.39,18.88.13,1.48-.32,2.15-1.61,2.82-18.67,9.63-37.31,19.33-55.97,28.99-.9.47-1.36,1.05-1.64,2.02-4.12,14.35-8.26,28.7-12.44,43.04-.19.64-.61,1.32-1.13,1.73-3.49,2.8-11.47,9.04-11.47,9.04,0,0,10.77-42.89,16.08-63.67.21-.83.64-1.27,1.38-1.62,18.3-8.76,36.59-17.56,54.9-26.3,1.11-.53,1.46-1.12,1.42-2.34-.22-8.5-.33-17.01-.53-25.52,0-.52-.31-1.17-.69-1.52-3.7-3.47-7.46-6.88-11.17-10.33-.55-.51-.88-.59-1.41.06-5.79,7.08-11.6,14.15-17.43,21.19-.56.68-.42,1.03.19,1.54,2.7,2.25,8.53,7.44,8.53,7.44,0,0-16.05-5.1-23.69-7.56-1.2-.39-.68-.82-.2-1.38,8.98-10.56,17.95-21.12,26.93-31.68,2.38-2.8,4.78-5.59,7.12-8.41.57-.68.87-.66,1.43.02,5.97,7.35,11.98,14.66,17.95,22.01.31.38.54.91.58,1.38.52,6.73,1.01,13.46,1.5,20.19l-.02-.02Z"/>
    <path d="m215.13,83.97c-.55.17-.85.25-1.16.35-16.63,5.3-33.25,10.6-49.88,15.88-.8.25-1.27.66-1.62,1.41-4.18,8.94-13.37,28.36-13.37,28.36,0,0,13.24-12.15,19.23-17.61.6-.54,1.48-.96,2.28-1.06,12.28-1.54,24.58-3.01,36.86-4.54.94-.12,1.43.12,1.9.95,3.5,6.19,7.03,12.36,10.61,18.5.56.96.36,1.39-.45,2-23.67,17.96-72.21,55.02-72.21,55.02,0,0,60.86-32.06,90.54-47.78,1.44-.76,1.44-.77.73-2.26-7.58-16.03-15.15-32.06-22.74-48.08-.2-.42-.5-.79-.72-1.12v-.02Z"/>
    <path d="m29.22,83.97c.55.17.85.25,1.16.35,16.63,5.3,33.25,10.6,49.88,15.88.8.25,1.27.66,1.62,1.41,4.18,8.94,13.37,28.36,13.37,28.36,0,0-13.24-12.15-19.23-17.61-.6-.54-1.48-.96-2.28-1.06-12.28-1.54-24.58-3.01-36.86-4.54-.94-.12-1.43.12-1.9.95-3.5,6.19-7.03,12.36-10.61,18.5-.56.96-.36,1.39.45,2,23.67,17.96,72.21,55.02,72.21,55.02,0,0-60.86-32.06-90.54-47.78-1.44-.76-1.44-.77-.73-2.26,7.58-16.03,15.15-32.06,22.74-48.08.2-.42.5-.79.72-1.12v-.02Z"/>
    <path d="m36.04,44.08c-.45,6.29-.84,12.59-1.39,18.88-.13,1.48.32,2.15,1.61,2.82,18.67,9.63,37.31,19.33,55.97,28.99.9.47,1.36,1.05,1.64,2.02,4.12,14.35,8.26,28.7,12.44,43.04.19.64.61,1.32,1.13,1.73,3.49,2.8,11.47,9.04,11.47,9.04,0,0-10.77-42.89-16.08-63.67-.21-.83-.64-1.27-1.38-1.62-18.3-8.76-36.59-17.56-54.9-26.3-1.11-.53-1.46-1.12-1.42-2.34.22-8.5.33-17.01.53-25.52,0-.52.31-1.17.69-1.52,3.7-3.47,7.46-6.88,11.17-10.33.55-.51.88-.59,1.41.06,5.79,7.08,11.6,14.15,17.43,21.19.56.68.42,1.03-.19,1.54-2.7,2.25-8.53,7.44-8.53,7.44,0,0,16.05-5.1,23.69-7.56,1.2-.39.68-.82.2-1.38-8.98-10.56-17.95-21.12-26.93-31.68-2.38-2.8-4.78-5.59-7.12-8.41-.57-.68-.87-.66-1.43.02-5.97,7.35-11.98,14.66-17.95,22.01-.31.38-.54.91-.58,1.38-.52,6.73-1.01,13.46-1.5,20.19l.02-.02Z"/>
  </g>
</svg>